<svg xmlns="http://www.w3.org/2000/svg" xmlns:xlink="http://www.w3.org/1999/xlink" viewBox="0 0 228.83 166.09"><defs><style>.cls-1{isolation:isolate;}.cls-2{opacity:0.8;}.cls-2,.cls-6{mix-blend-mode:multiply;}.cls-3{fill:#b3b3b3;}.cls-4{fill:url(#Degradado_sin_nombre_166);}.cls-5{fill:#fff;}.cls-6{opacity:0.75;}.cls-7{fill:#c4c4c4;}.cls-8{fill:url(#Degradado_sin_nombre_99);}.cls-9{fill:#95c935;}.cls-10,.cls-12{fill:none;}.cls-10{stroke:#95c935;}.cls-10,.cls-11,.cls-12{stroke-miterlimit:10;stroke-width:3px;}.cls-11,.cls-12{stroke:#000;}.cls-13{fill:#818284;}</style><linearGradient id="Degradado_sin_nombre_166" x1="179.62" y1="19.26" x2="91.48" y2="110.53" gradientUnits="userSpaceOnUse"><stop offset="0" stop-color="#ddeebe"/><stop offset="0.14" stop-color="#cae499"/><stop offset="0.3" stop-color="#b9dc78"/><stop offset="0.47" stop-color="#abd55d"/><stop offset="0.64" stop-color="#a2d04b"/><stop offset="0.81" stop-color="#9ccd40"/><stop offset="1" stop-color="#9acc3c"/></linearGradient><linearGradient id="Degradado_sin_nombre_99" x1="149.45" y1="18.92" x2="38.05" y2="85.85" gradientUnits="userSpaceOnUse"><stop offset="0" stop-color="#7e7f83"/><stop offset="1" stop-color="#d0d0d2"/></linearGradient></defs><title>Recurso 3</title><g class="cls-1"><g id="Capa_2" data-name="Capa 2"><g id="Capa_1-2" data-name="Capa 1"><g class="cls-2"><path class="cls-3" d="M146.64,123.26a11.36,11.36,0,0,1-7.12-3.05l-4.5-5.59L120.54,96.75l13.6-19.81,9.65,10.52A5,5,0,0,0,146.87,89a3.44,3.44,0,0,0,.46,0A5.53,5.53,0,0,0,152.1,86l11.36-16.76,0-.07c1.57-5.27,4.42-18.81-2.9-30.72-.2-.32-.41-.67-.63-1.06-1.53-2.6-3.83-6.54-8.39-9.17a15.59,15.59,0,0,0-7.79-2.44c-.22,0-.44,0-.66,0-5.35.31-9.73,4.24-11.86,7.52-2.64,4-26.16,40.07-40.17,58.11-1.8,2.32-6.6,8.5-11.71,8.5a7,7,0,0,1-.79,0c-3-.38-6.15-3-8.41-5a33.21,33.21,0,0,1-4.89-5.23C89.67,51.09,107,26.35,113.34,18.9a40.8,40.8,0,0,1,10.2-8.77,38.74,38.74,0,0,1,13.47-5,36.66,36.66,0,0,1,6.1-.51,37.28,37.28,0,0,1,5.59.43,36.47,36.47,0,0,1,9.9,3,54.47,54.47,0,0,1,11,6.61c10.93,8.83,15.27,24.56,16,27.63A57.6,57.6,0,0,1,182.16,79c-3.24,5.43-6.65,10.92-10.1,16.25-5.16,8-10.6,15.93-16.18,23.62-.35.44-3.62,4.42-8.84,4.42Z"/><path class="cls-3" d="M143.11,5.16h0a35.86,35.86,0,0,1,15.31,3.41,53.94,53.94,0,0,1,10.85,6.52c10.82,8.74,15.11,24.33,15.86,27.35a57.27,57.27,0,0,1-3.4,36.28c-3.25,5.44-6.65,10.91-10.09,16.23-5.15,8-10.59,15.91-16.15,23.57a11.45,11.45,0,0,1-8.45,4.24h-.38a10.8,10.8,0,0,1-6.75-2.87l-2.22-2.76-2.28-2.82-6.1-7.53-8.14-10,3.11-4.55,9.91-14.44,9.25,10.08a5.56,5.56,0,0,0,3.38,1.71,4.36,4.36,0,0,0,.51,0,6,6,0,0,0,5.19-3.33l9-13.28,2.31-3.41.08-.13.05-.15c1.58-5.33,4.47-19-3-31.12-.19-.31-.4-.67-.62-1-1.55-2.65-3.89-6.65-8.57-9.35a16,16,0,0,0-8-2.51c-.22,0-.46,0-.69,0-5.54.32-10.06,4.37-12.25,7.74-2.63,4-26.11,40-40.14,58.08-1.76,2.27-6.45,8.31-11.32,8.31a6,6,0,0,1-.73,0c-2.9-.36-5.93-3-8.15-4.87a33.15,33.15,0,0,1-4.6-4.87c24.28-38.34,41.5-62.95,47.83-70.36a40.17,40.17,0,0,1,10.07-8.67,38.32,38.32,0,0,1,13.3-4.9,36.77,36.77,0,0,1,6-.5m0-1a37,37,0,0,0-6.19.52,39.44,39.44,0,0,0-13.64,5A41.07,41.07,0,0,0,113,18.58c-6.88,8.05-25.13,34.47-48.28,71.06a33.69,33.69,0,0,0,5.16,5.58c2.3,2,5.48,4.71,8.68,5.11a8.08,8.08,0,0,0,.85,0c5.19,0,9.87-5.81,12.11-8.69,14.17-18.25,37.7-54.34,40.18-58.15,1.73-2.65,6-7,11.48-7.29.21,0,.42,0,.63,0a15.17,15.17,0,0,1,7.54,2.37c5.11,2.95,7.31,7.59,8.84,10.07,7.66,12.46,4,26.53,2.85,30.31L151.66,85.72a5.09,5.09,0,0,1-4.33,2.84l-.41,0a4.57,4.57,0,0,1-2.76-1.41l-10.08-11L119.92,96.78q7.35,9.07,14.71,18.16l4.55,5.64a11.77,11.77,0,0,0,7.44,3.18H147a12.41,12.41,0,0,0,9.24-4.62q8.07-11.11,16.2-23.64,5.36-8.3,10.14-16.32a58.19,58.19,0,0,0,3.48-37c-.6-2.42-4.81-18.7-16.2-27.9a54.71,54.71,0,0,0-11.09-6.67,37.22,37.22,0,0,0-15.7-3.49Z"/></g><path class="cls-4" d="M147.64,119.26a11.36,11.36,0,0,1-7.12-3.05l-4.5-5.59L121.54,92.75l13.6-19.81,9.65,10.52A5,5,0,0,0,147.87,85a3.44,3.44,0,0,0,.46,0A5.53,5.53,0,0,0,153.1,82l11.36-16.76,0-.07c1.57-5.27,4.42-18.81-2.9-30.72-.2-.32-.41-.67-.63-1.06-1.53-2.6-3.83-6.54-8.39-9.17a15.59,15.59,0,0,0-7.79-2.44c-.22,0-.44,0-.66,0-5.35.31-9.73,4.24-11.86,7.52-2.64,4-26.16,40.07-40.17,58.11-1.8,2.32-6.6,8.5-11.71,8.5a7,7,0,0,1-.79,0c-3-.38-6.15-3-8.41-5a33.21,33.21,0,0,1-4.89-5.23C90.67,47.09,108,22.35,114.34,14.9a40.8,40.8,0,0,1,10.2-8.77,38.74,38.74,0,0,1,13.47-5,36.66,36.66,0,0,1,6.1-.51,37.28,37.28,0,0,1,5.59.43,36.47,36.47,0,0,1,9.9,3,54.47,54.47,0,0,1,11,6.61c10.93,8.83,15.27,24.56,16,27.63A57.6,57.6,0,0,1,183.16,75c-3.24,5.43-6.65,10.92-10.1,16.25-5.16,8-10.6,15.93-16.18,23.62-.35.44-3.62,4.42-8.84,4.42Z"/><path class="cls-5" d="M144.11,1.16h0a35.86,35.86,0,0,1,15.31,3.41,53.94,53.94,0,0,1,10.85,6.52c10.82,8.74,15.11,24.33,15.86,27.35a57.27,57.27,0,0,1-3.4,36.28c-3.25,5.44-6.65,10.91-10.09,16.23-5.15,8-10.59,15.91-16.15,23.57a11.45,11.45,0,0,1-8.45,4.24h-.38a10.8,10.8,0,0,1-6.75-2.87l-2.22-2.76-2.28-2.82-6.1-7.53-8.14-10,3.11-4.55,9.91-14.44,9.25,10.08a5.56,5.56,0,0,0,3.38,1.71,4.36,4.36,0,0,0,.51,0,6,6,0,0,0,5.19-3.33l9-13.28,2.31-3.41.08-.13.05-.15c1.58-5.33,4.47-19-3-31.12-.19-.31-.4-.67-.62-1-1.55-2.65-3.89-6.65-8.57-9.35a16,16,0,0,0-8-2.51c-.22,0-.46,0-.69,0-5.54.32-10.06,4.37-12.25,7.74-2.63,4-26.11,40-40.14,58.08-1.76,2.27-6.45,8.31-11.32,8.31a6,6,0,0,1-.73,0c-2.9-.36-5.93-3-8.15-4.87a33.15,33.15,0,0,1-4.6-4.87c24.28-38.34,41.5-62.95,47.83-70.36a40.17,40.17,0,0,1,10.07-8.67,38.32,38.32,0,0,1,13.3-4.9,36.77,36.77,0,0,1,6-.5m0-1a37,37,0,0,0-6.19.52,39.44,39.44,0,0,0-13.64,5A41.07,41.07,0,0,0,114,14.58c-6.88,8-25.13,34.47-48.28,71.06a33.69,33.69,0,0,0,5.16,5.58c2.3,2,5.48,4.71,8.68,5.11a8.08,8.08,0,0,0,.85,0c5.19,0,9.87-5.81,12.11-8.69,14.17-18.25,37.7-54.34,40.18-58.15,1.73-2.65,6-7,11.48-7.29.21,0,.42,0,.63,0a15.17,15.17,0,0,1,7.54,2.37c5.11,2.95,7.31,7.59,8.84,10.07,7.66,12.46,4,26.53,2.85,30.31L152.66,81.72a5.09,5.09,0,0,1-4.33,2.84l-.41,0a4.57,4.57,0,0,1-2.76-1.41l-10.08-11L120.92,92.78q7.35,9.07,14.71,18.16l4.55,5.64a11.77,11.77,0,0,0,7.44,3.18H148a12.41,12.41,0,0,0,9.24-4.62q8.07-11.11,16.2-23.64,5.36-8.3,10.14-16.32a58.19,58.19,0,0,0,3.48-37c-.6-2.42-4.81-18.7-16.2-27.9a54.71,54.71,0,0,0-11.09-6.67A37.22,37.22,0,0,0,144.11.16Z"/><g class="cls-6"><path class="cls-7" d="M79.54,120.24a39,39,0,0,1-8-.81C56,116.15,42.68,101.54,37.6,82.2a57.12,57.12,0,0,1-.26-21.92,108.27,108.27,0,0,1,6.8-18.18c3.12-6.5,6.24-11.24,10.56-17.79,4-6,8.26-12,12.74-17.82a12.52,12.52,0,0,1,8.87-4,11.37,11.37,0,0,1,1.15.06,12.32,12.32,0,0,1,9.22,6.16l0,0L103,28.17,89.08,48.55,79.61,37.48l-.08,0a6.18,6.18,0,0,0-3-.81,6.65,6.65,0,0,0-.89.06,6.22,6.22,0,0,0-4,2.52L59.23,57.7a23,23,0,0,0-1.6,5.59,23.47,23.47,0,0,0-.17,6,37.42,37.42,0,0,0,1.68,8.17,38.6,38.6,0,0,0,3.67,8,41.8,41.8,0,0,0,3.66,5.19c2.89,3.42,9.07,8.71,14.22,9.25a6.23,6.23,0,0,0,.77,0c3.05,0,8.49-2,20.45-19.46,19-27.72,31.51-46.95,31.64-47.14,1.21-1.89,4.42-6.88,9.58-7.72a9.64,9.64,0,0,1,1.52-.12,11.55,11.55,0,0,1,3.43.56c6,1.77,9.16,7.44,10.31,10.07l-49.32,70.94a37.39,37.39,0,0,1-13,9.91A44,44,0,0,1,79.54,120.24Z"/><path class="cls-7" d="M76.31,3h0c.36,0,.73,0,1.1,0A12,12,0,0,1,86.23,9l0,.09.07.07L95.53,20l6.86,8.16-8,11.63L89,47.73l-3.57-4.17L80,37.22l-.11-.13L79.79,37a6.73,6.73,0,0,0-3.29-.88,6.08,6.08,0,0,0-1,.07,6.66,6.66,0,0,0-4.36,2.74L65,48.18l-6.19,9.25-.05.08,0,.09a24.43,24.43,0,0,0-1.59,5.61A24,24,0,0,0,57,69.37a38,38,0,0,0,5.43,16.36l0,.07A39.8,39.8,0,0,0,66.09,91c2.94,3.49,9.25,8.87,14.54,9.43a8,8,0,0,0,.83,0c3.43,0,8.91-2.24,20.86-19.68C121.16,53.32,133.45,34.43,134,33.62c1.17-1.82,4.3-6.68,9.24-7.49a9.87,9.87,0,0,1,1.44-.11,11.21,11.21,0,0,1,3.29.54c5.64,1.66,8.67,6.88,9.88,9.53L117.36,94.28l-8.67,12.49a37.09,37.09,0,0,1-12.83,9.78,43.58,43.58,0,0,1-16.32,3.19,38.6,38.6,0,0,1-7.89-.8C56.3,115.7,43.13,101.24,38.09,82.1A57,57,0,0,1,37,73.48a56.26,56.26,0,0,1,.85-13.07,107.61,107.61,0,0,1,6.76-18.09c3.11-6.48,6.06-11,10.52-17.73,4-6,8.24-12,12.7-17.77A12,12,0,0,1,76.31,3m0-1A13,13,0,0,0,67,6.19c-5.44,7-9.69,13.18-12.76,17.85-4.59,7-7.51,11.44-10.59,17.85a108.93,108.93,0,0,0-6.84,18.3,57.41,57.41,0,0,0,.27,22.14c5.1,19.41,18.37,34.22,34.32,37.59a39.4,39.4,0,0,0,8.1.82,44.15,44.15,0,0,0,16.74-3.28,38.51,38.51,0,0,0,13.2-10.08L159,36.2c-.68-1.6-3.84-8.57-10.74-10.6a12.19,12.19,0,0,0-3.57-.58,10.13,10.13,0,0,0-1.6.13c-5.28.85-8.55,5.79-9.92,7.93,0,0-12.41,19.1-31.63,47.14-11.66,17-17,19.24-20,19.24-.25,0-.49,0-.72,0-4.7-.5-10.68-5.29-13.89-9.08a42.48,42.48,0,0,1-3.61-5.13A37.2,37.2,0,0,1,58,69.28a23.31,23.31,0,0,1,.17-5.91A23,23,0,0,1,59.64,58L72,39.49a5.61,5.61,0,0,1,3.68-2.31,4.51,4.51,0,0,1,.8-.06,5.54,5.54,0,0,1,2.78.75l9.84,11.51,14.52-21.24L87.11,8.48a12.93,12.93,0,0,0-9.6-6.42Q76.89,2,76.31,2Z"/></g><path class="cls-8" d="M79.54,118.24a39,39,0,0,1-8-.81C56,114.15,42.68,99.54,37.6,80.2a57.12,57.12,0,0,1-.26-21.92,108.27,108.27,0,0,1,6.8-18.18c3.12-6.5,6.24-11.24,10.56-17.79,4-6,8.26-12,12.74-17.82a12.52,12.52,0,0,1,8.87-4,11.37,11.37,0,0,1,1.15.06,12.32,12.32,0,0,1,9.22,6.16l0,0L103,26.17,89.08,46.55,79.61,35.48l-.08,0a6.18,6.18,0,0,0-3-.81,6.65,6.65,0,0,0-.89.06,6.22,6.22,0,0,0-4,2.52L59.23,55.7a23,23,0,0,0-1.6,5.59,23.47,23.47,0,0,0-.17,6,37.42,37.42,0,0,0,1.68,8.17,38.6,38.6,0,0,0,3.67,8,41.8,41.8,0,0,0,3.66,5.19c2.89,3.42,9.07,8.71,14.22,9.25a6.23,6.23,0,0,0,.77,0c3.05,0,8.49-2,20.45-19.46,19-27.72,31.51-46.95,31.64-47.14,1.21-1.89,4.42-6.88,9.58-7.72a9.64,9.64,0,0,1,1.52-.12,11.55,11.55,0,0,1,3.43.56c6,1.77,9.16,7.44,10.31,10.07l-49.32,70.94a37.39,37.39,0,0,1-13,9.91A44,44,0,0,1,79.54,118.24Z"/><path class="cls-5" d="M76.31,1h0c.36,0,.73,0,1.1.05A12,12,0,0,1,86.23,7l0,.09.07.07L95.53,18l6.86,8.16-8,11.63L89,45.73l-3.57-4.17L80,35.22l-.11-.13L79.79,35a6.73,6.73,0,0,0-3.29-.88,6.08,6.08,0,0,0-1,.07,6.66,6.66,0,0,0-4.36,2.74L65,46.18l-6.19,9.25-.05.08,0,.09a24.43,24.43,0,0,0-1.59,5.61A24,24,0,0,0,57,67.37a38,38,0,0,0,5.43,16.36l0,.07A39.8,39.8,0,0,0,66.09,89c2.94,3.49,9.25,8.87,14.54,9.43a8,8,0,0,0,.83,0c3.43,0,8.91-2.24,20.86-19.68C121.16,51.32,133.45,32.43,134,31.62c1.17-1.82,4.3-6.68,9.24-7.49a9.87,9.87,0,0,1,1.44-.11,11.21,11.21,0,0,1,3.29.54c5.64,1.66,8.67,6.88,9.88,9.53L117.36,92.28l-8.67,12.49a37.09,37.09,0,0,1-12.83,9.78,43.58,43.58,0,0,1-16.32,3.19,38.6,38.6,0,0,1-7.89-.8C56.3,113.7,43.13,99.24,38.09,80.1A57,57,0,0,1,37,71.48a56.26,56.26,0,0,1,.85-13.07,107.61,107.61,0,0,1,6.76-18.09c3.11-6.48,6.06-11,10.52-17.73,4-6,8.24-12,12.7-17.77A12,12,0,0,1,76.31,1m0-1A13,13,0,0,0,67,4.19c-5.44,7-9.69,13.18-12.76,17.85-4.59,7-7.51,11.44-10.59,17.85a108.93,108.93,0,0,0-6.84,18.3,57.41,57.41,0,0,0,.27,22.14c5.1,19.41,18.37,34.22,34.32,37.59a39.4,39.4,0,0,0,8.1.82,44.15,44.15,0,0,0,16.74-3.28,38.51,38.51,0,0,0,13.2-10.08L159,34.2c-.68-1.6-3.84-8.57-10.74-10.6a12.19,12.19,0,0,0-3.57-.58,10.13,10.13,0,0,0-1.6.13c-5.28.85-8.55,5.79-9.92,7.93,0,0-12.41,19.1-31.63,47.14-11.66,17-17,19.24-20,19.24-.25,0-.49,0-.72,0-4.7-.5-10.68-5.29-13.89-9.08a42.48,42.48,0,0,1-3.61-5.13A37.2,37.2,0,0,1,58,67.28a23.31,23.31,0,0,1,.17-5.91A23,23,0,0,1,59.64,56L72,37.49a5.61,5.61,0,0,1,3.68-2.31,4.51,4.51,0,0,1,.8-.06,5.54,5.54,0,0,1,2.78.75l9.84,11.51,14.52-21.24L87.11,6.48A12.93,12.93,0,0,0,77.51.06Q76.89,0,76.31,0Z"/><path class="cls-9" d="M61.65,146.24H58.81V133.58H54.27V130.9H65.92v2.68H61.65Z"/><path class="cls-9" d="M79.38,146.24,74.18,134a.91.91,0,0,0-.78-.41h-.12a.91.91,0,0,0-.81.41l-5.15,12.22H64.21l5.72-13.37a2.91,2.91,0,0,1,1.33-1.49,4.6,4.6,0,0,1,2.09-.48,4.29,4.29,0,0,1,2.08.47,3.05,3.05,0,0,1,1.32,1.5l5.71,13.37Z"/><path class="cls-9" d="M92.29,146.24a11.54,11.54,0,0,1-3.46-.47,6.72,6.72,0,0,1-2.47-1.33,5.46,5.46,0,0,1-1.49-2.09,7.26,7.26,0,0,1-.5-2.76V130.9H87.2v8.72a3.46,3.46,0,0,0,1.32,2.89,5.79,5.79,0,0,0,3.69,1h5.4v2.69Z"/><path d="M122.31,133.58h-9.48a2.58,2.58,0,0,0-.88.15,2.61,2.61,0,0,0-.72.39,2.17,2.17,0,0,0-.49.56,1.37,1.37,0,0,0-.18.69,1.61,1.61,0,0,0,.63,1.28,2.55,2.55,0,0,0,1.67.52H118a6.57,6.57,0,0,1,4.08,1.16,4,4,0,0,1,1.52,3.41,4,4,0,0,1-1.49,3.36,6.72,6.72,0,0,1-4.16,1.14h-9.26v-2.69h9.87a2.33,2.33,0,0,0,1.58-.54,1.64,1.64,0,0,0,.62-1.32,1.66,1.66,0,0,0-.62-1.28,2.29,2.29,0,0,0-1.58-.55h-5.18a7.46,7.46,0,0,1-2.63-.4,5.06,5.06,0,0,1-1.74-1,3.7,3.7,0,0,1-1-1.43,4.39,4.39,0,0,1-.29-1.57,4.81,4.81,0,0,1,.31-1.75,3.84,3.84,0,0,1,1-1.44,4.71,4.71,0,0,1,1.74-1,8.11,8.11,0,0,1,2.57-.35h9Z"/><path d="M140.22,133.58h-9.36a2.58,2.58,0,0,0-.88.15,2.47,2.47,0,0,0-.72.39,2,2,0,0,0-.49.56,1.37,1.37,0,0,0-.18.69,1.63,1.63,0,0,0,.62,1.28,2.49,2.49,0,0,0,1.65.52h9.36v2.69h-9.48a2.58,2.58,0,0,0-.88.15,2.47,2.47,0,0,0-.72.39,1.85,1.85,0,0,0-.49.56,1.37,1.37,0,0,0-.18.69,1.86,1.86,0,0,0,.14.7,1.76,1.76,0,0,0,.44.61,2.16,2.16,0,0,0,.72.43,2.78,2.78,0,0,0,1,.16h9.46v2.69h-9a7.82,7.82,0,0,1-2.64-.39,4.81,4.81,0,0,1-1.73-1,3.84,3.84,0,0,1-.95-1.45,4.78,4.78,0,0,1-.3-1.67,3.68,3.68,0,0,1,.52-1.84,3.48,3.48,0,0,1,1.53-1.43,3,3,0,0,1-1.45-1.34,3.8,3.8,0,0,1-.43-1.66,4.54,4.54,0,0,1,.42-2,3.87,3.87,0,0,1,1.15-1.41,5.11,5.11,0,0,1,1.76-.82,8.77,8.77,0,0,1,2.24-.26h8.85Z"/><path d="M150.75,146.24q-8.16,0-8.16-7.65v-.07q.09-7.62,8.18-7.62h6.53v2.68H150a4.43,4.43,0,0,0-3.42,1.22,5.52,5.52,0,0,0-1.13,3.82q0,4.94,4.52,4.93h7.33v2.69Z"/><path d="M174.89,140.42a5.93,5.93,0,0,1-.47,2.39,5,5,0,0,1-1.4,1.83,6.62,6.62,0,0,1-2.36,1.18,11.61,11.61,0,0,1-3.3.42,11.12,11.12,0,0,1-3.25-.43,7.11,7.11,0,0,1-2.37-1.18,5.18,5.18,0,0,1-1.45-1.82,5.54,5.54,0,0,1-.5-2.36V130.9h2.83v9.5a2.66,2.66,0,0,0,1.27,2.27,6,6,0,0,0,3.5.88h.09a5.57,5.57,0,0,0,3.44-.88,2.75,2.75,0,0,0,1.13-2.27v-9.5h2.84Z"/><path d="M208.5,146.24h-2.83V133.58h-4.54V130.9h11.65v2.68H208.5Z"/><path d="M227.61,134.27h-.15c-2.37,0-4.18,2.51-4.18,4.74v6a1.23,1.23,0,0,1-1.24,1.22h-.78A1.21,1.21,0,0,1,220,145v-5.84c0-2.32-1.66-4.86-4.12-4.86h-.15a1.23,1.23,0,0,1-1.25-1.22v-.81a1.22,1.22,0,0,1,1.22-1.22h.37a7.54,7.54,0,0,1,4.59,1.88,1.64,1.64,0,0,0,2.06-.1,6.74,6.74,0,0,1,4.49-1.78h.37a1.21,1.21,0,0,1,1.22,1.22v.81A1.21,1.21,0,0,1,227.61,134.27Z"/><line class="cls-10" x1="21.3" y1="135.38" x2="21.3" y2="146.24"/><rect class="cls-9" x="19.76" y="131.09" width="3.03" height="2.64"/><path class="cls-10" d="M48.52,135.38v10.74"/><rect class="cls-9" x="46.98" y="130.97" width="3.03" height="2.64"/><path class="cls-11" d="M196.78,135.63v10.61"/><rect x="195.24" y="131.09" width="3.03" height="2.64"/><path class="cls-12" d="M191.52,145l-5.85.09a3.33,3.33,0,0,1-.1-6.28h2.76a3.32,3.32,0,0,0-.21-6.47l-11.88.2"/><path class="cls-13" d="M89.25,165.93H88a6.24,6.24,0,0,1-.15-1.4,3.64,3.64,0,0,1-3.34,1.55c-3.15,0-4.84-2.38-4.84-5.48,0-3.27,1.81-5.72,5.13-5.72,2.58,0,4.19,1.41,4.49,3.34H87.7a2.71,2.71,0,0,0-2.9-2c-2.47,0-3.41,2-3.41,4.32,0,2.18,1,4.22,3.36,4.22s2.93-1.58,2.93-3.26v-.11H84.74V160h4.51Z"/><path class="cls-13" d="M96.68,161.21v4.72H95.09V155h4.35c2.27,0,3.48,1.24,3.48,2.93a2.51,2.51,0,0,1-1.81,2.57c.82.23,1.61.87,1.61,2.78v.48a8.16,8.16,0,0,0,.14,2.14H101.3a7.75,7.75,0,0,1-.19-2.36v-.22c0-1.48-.41-2.14-2.33-2.14Zm0-1.34H99c1.59,0,2.28-.6,2.28-1.76s-.72-1.74-2.14-1.74H96.68Z"/><path class="cls-13" d="M118.08,160.42c0,3-1.71,5.67-5.16,5.67-3.25,0-5-2.48-5-5.61s1.86-5.6,5.17-5.6C116.14,154.88,118.08,157.17,118.08,160.42Zm-8.51,0c0,2.32,1.15,4.29,3.42,4.29,2.44,0,3.4-2,3.4-4.27s-1.08-4.21-3.41-4.21S109.57,158.15,109.57,160.43Z"/><path class="cls-13" d="M125.11,155v6.55c0,2.48,1.34,3.16,2.7,3.16,1.57,0,2.67-.75,2.67-3.16V155h1.62v6.46c0,3.58-2,4.58-4.32,4.58s-4.31-1.08-4.31-4.48V155Z"/><path class="cls-13" d="M138.11,155h4.21c2.16,0,3.63,1.21,3.63,3.21,0,2.17-1.58,3.29-3.71,3.29h-2.5v4.4h-1.63Zm1.63,5.16h2.38c1.42,0,2.17-.67,2.17-1.91a1.85,1.85,0,0,0-2.11-1.91h-2.44Z"/><path class="cls-10" d="M0,131.86l10.1,0a7.28,7.28,0,0,1,0,13.05l-10,0"/><path class="cls-10" d="M41.85,132.29H32.1a6.87,6.87,0,0,0,0,12.39h8.37l-.09-5.13"/></g></g></g></svg>