<svg xmlns="http://www.w3.org/2000/svg" xmlns:xlink="http://www.w3.org/1999/xlink" viewBox="0 0 152.74 123.76"><defs><style>.cls-1{isolation:isolate;}.cls-2{opacity:0.8;}.cls-2,.cls-6{mix-blend-mode:multiply;}.cls-3{fill:#b3b3b3;}.cls-4{fill:url(#Degradado_sin_nombre_166);}.cls-5{fill:#fff;}.cls-6{opacity:0.75;}.cls-7{fill:#c4c4c4;}.cls-8{fill:url(#Degradado_sin_nombre_99);}</style><linearGradient id="Degradado_sin_nombre_166" x1="143.72" y1="19.26" x2="55.58" y2="110.53" gradientUnits="userSpaceOnUse"><stop offset="0" stop-color="#ddeebe"/><stop offset="0.14" stop-color="#cae499"/><stop offset="0.3" stop-color="#b9dc78"/><stop offset="0.47" stop-color="#abd55d"/><stop offset="0.64" stop-color="#a2d04b"/><stop offset="0.81" stop-color="#9ccd40"/><stop offset="1" stop-color="#9acc3c"/></linearGradient><linearGradient id="Degradado_sin_nombre_99" x1="113.55" y1="18.92" x2="2.15" y2="85.85" gradientUnits="userSpaceOnUse"><stop offset="0" stop-color="#7e7f83"/><stop offset="1" stop-color="#d0d0d2"/></linearGradient></defs><title>ds-notext</title><g class="cls-1"><g id="Capa_2" data-name="Capa 2"><g id="Capa_1-2" data-name="Capa 1"><g class="cls-2"><path class="cls-3" d="M110.74,123.26a11.31,11.31,0,0,1-7.12-3.05l-4.5-5.59L84.64,96.75,98.23,76.94l9.66,10.52A5,5,0,0,0,111,89a3.4,3.4,0,0,0,.45,0A5.54,5.54,0,0,0,116.2,86l11.35-16.76,0-.07c1.56-5.27,4.41-18.81-2.91-30.72L124,37.34c-1.52-2.6-3.82-6.54-8.38-9.17a15.67,15.67,0,0,0-7.79-2.44c-.22,0-.44,0-.66,0-5.35.31-9.74,4.24-11.87,7.52-2.63,4-26.15,40.07-40.16,58.11-1.8,2.32-6.6,8.5-11.72,8.5a6.81,6.81,0,0,1-.78,0c-3-.38-6.15-3-8.41-5a33.21,33.21,0,0,1-4.89-5.23C53.77,51.09,71.08,26.35,77.44,18.9a40.93,40.93,0,0,1,10.19-8.77,38.89,38.89,0,0,1,13.47-5,36.87,36.87,0,0,1,6.11-.51,37.28,37.28,0,0,1,5.59.43,36.57,36.57,0,0,1,9.9,3,54.54,54.54,0,0,1,11,6.61c10.94,8.83,15.27,24.56,16,27.63A57.6,57.6,0,0,1,146.26,79c-3.24,5.43-6.65,10.92-10.1,16.25-5.16,8-10.6,15.93-16.19,23.62a12,12,0,0,1-8.83,4.42Z"/><path class="cls-3" d="M107.21,5.16h0a35.86,35.86,0,0,1,15.3,3.41,54.17,54.17,0,0,1,10.86,6.52c10.81,8.74,15.1,24.33,15.85,27.35a57.15,57.15,0,0,1-3.39,36.28c-3.25,5.44-6.65,10.91-10.09,16.23-5.16,8-10.6,15.91-16.15,23.57a11.45,11.45,0,0,1-8.45,4.24h-.38a10.77,10.77,0,0,1-6.75-2.87l-2.23-2.76-2.27-2.82-6.1-7.53-8.15-10,3.12-4.55,9.91-14.44,9.24,10.08a5.62,5.62,0,0,0,3.38,1.71,4.36,4.36,0,0,0,.51,0,6,6,0,0,0,5.19-3.33l9-13.28,2.31-3.41.09-.13,0-.15c1.59-5.33,4.48-19-3-31.12-.2-.31-.4-.67-.62-1-1.55-2.65-3.9-6.65-8.57-9.35a16,16,0,0,0-8-2.51c-.23,0-.46,0-.69,0-5.54.32-10.06,4.37-12.26,7.74-2.63,4-26.1,40-40.13,58.08-1.77,2.27-6.45,8.31-11.33,8.31a5.81,5.81,0,0,1-.72,0c-2.9-.36-5.94-3-8.15-4.87A32.63,32.63,0,0,1,30,89.59c24.28-38.34,41.5-62.95,47.83-70.36a40.17,40.17,0,0,1,10.07-8.67,38.35,38.35,0,0,1,13.29-4.9,37,37,0,0,1,6-.5m0-1a36.92,36.92,0,0,0-6.19.52,39.37,39.37,0,0,0-13.64,5,41.07,41.07,0,0,0-10.32,8.88c-6.88,8.05-25.13,34.47-48.28,71.06a33.69,33.69,0,0,0,5.16,5.58c2.3,2,5.47,4.71,8.68,5.11a7.89,7.89,0,0,0,.84,0c5.2,0,9.88-5.81,12.12-8.69,14.17-18.25,37.7-54.34,40.18-58.15,1.72-2.65,5.94-7,11.48-7.29.21,0,.42,0,.63,0a15.21,15.21,0,0,1,7.54,2.37c5.11,2.95,7.31,7.59,8.84,10.07,7.66,12.46,4,26.53,2.85,30.31L115.76,85.72a5.09,5.09,0,0,1-4.34,2.84l-.4,0a4.57,4.57,0,0,1-2.76-1.41l-10.08-11L84,96.78q7.35,9.07,14.71,18.16l4.55,5.64a11.77,11.77,0,0,0,7.44,3.18h.42a12.43,12.43,0,0,0,9.24-4.62c5.37-7.41,10.8-15.29,16.2-23.64q5.35-8.3,10.14-16.32a58.19,58.19,0,0,0,3.48-37c-.6-2.42-4.81-18.7-16.2-27.9a54.71,54.71,0,0,0-11.09-6.67,37.22,37.22,0,0,0-15.7-3.49Z"/></g><path class="cls-4" d="M111.74,119.26a11.31,11.31,0,0,1-7.12-3.05l-4.5-5.59L85.64,92.75,99.23,72.94l9.66,10.52A5,5,0,0,0,112,85a3.4,3.4,0,0,0,.45,0A5.54,5.54,0,0,0,117.2,82l11.35-16.76,0-.07c1.56-5.27,4.41-18.81-2.91-30.72L125,33.34c-1.52-2.6-3.82-6.54-8.38-9.17a15.67,15.67,0,0,0-7.79-2.44c-.22,0-.44,0-.66,0-5.35.31-9.74,4.24-11.87,7.52-2.63,4-26.15,40.07-40.16,58.11-1.8,2.32-6.6,8.5-11.72,8.5a6.81,6.81,0,0,1-.78,0c-3-.38-6.15-3-8.41-5a33.21,33.21,0,0,1-4.89-5.23C54.77,47.09,72.08,22.35,78.44,14.9A40.93,40.93,0,0,1,88.63,6.13a38.89,38.89,0,0,1,13.47-5,36.87,36.87,0,0,1,6.11-.51,37.28,37.28,0,0,1,5.59.43,36.57,36.57,0,0,1,9.9,3,54.54,54.54,0,0,1,11,6.61c10.94,8.83,15.27,24.56,16,27.63A57.6,57.6,0,0,1,147.26,75c-3.24,5.43-6.65,10.92-10.1,16.25-5.16,8-10.6,15.93-16.19,23.62a12,12,0,0,1-8.83,4.42Z"/><path class="cls-5" d="M108.21,1.16h0a35.86,35.86,0,0,1,15.3,3.41,54.17,54.17,0,0,1,10.86,6.52c10.81,8.74,15.1,24.33,15.85,27.35a57.15,57.15,0,0,1-3.39,36.28c-3.25,5.44-6.65,10.91-10.09,16.23-5.16,8-10.6,15.91-16.15,23.57a11.45,11.45,0,0,1-8.45,4.24h-.38a10.77,10.77,0,0,1-6.75-2.87l-2.23-2.76-2.27-2.82-6.1-7.53-8.15-10,3.12-4.55,9.91-14.44,9.24,10.08a5.62,5.62,0,0,0,3.38,1.71,4.36,4.36,0,0,0,.51,0,6,6,0,0,0,5.19-3.33l9-13.28,2.31-3.41.09-.13,0-.15c1.59-5.33,4.48-19-3-31.12-.2-.31-.4-.67-.62-1-1.55-2.65-3.9-6.65-8.57-9.35a16,16,0,0,0-8-2.51c-.23,0-.46,0-.69,0-5.54.32-10.06,4.37-12.26,7.74-2.63,4-26.1,40-40.13,58.08-1.77,2.27-6.45,8.31-11.33,8.31a5.81,5.81,0,0,1-.72,0c-2.9-.36-5.94-3-8.15-4.87A32.63,32.63,0,0,1,31,85.59c24.28-38.34,41.5-62.95,47.83-70.36A40.17,40.17,0,0,1,88.89,6.56a38.35,38.35,0,0,1,13.29-4.9,37,37,0,0,1,6-.5m0-1A36.92,36.92,0,0,0,102,.68a39.37,39.37,0,0,0-13.64,5,41.07,41.07,0,0,0-10.32,8.88c-6.88,8-25.13,34.47-48.28,71.06a33.69,33.69,0,0,0,5.16,5.58c2.3,2,5.47,4.71,8.68,5.11a7.89,7.89,0,0,0,.84,0c5.2,0,9.88-5.81,12.12-8.69,14.17-18.25,37.7-54.34,40.18-58.15,1.72-2.65,5.94-7,11.48-7.29.21,0,.42,0,.63,0a15.21,15.21,0,0,1,7.54,2.37c5.11,2.95,7.31,7.59,8.84,10.07,7.66,12.46,4,26.53,2.85,30.31L116.76,81.72a5.09,5.09,0,0,1-4.34,2.84l-.4,0a4.57,4.57,0,0,1-2.76-1.41l-10.08-11L85,92.78q7.35,9.07,14.71,18.16l4.55,5.64a11.77,11.77,0,0,0,7.44,3.18h.42a12.43,12.43,0,0,0,9.24-4.62c5.37-7.41,10.8-15.29,16.2-23.64q5.35-8.3,10.14-16.32a58.19,58.19,0,0,0,3.48-37c-.6-2.42-4.81-18.7-16.2-27.9a54.71,54.71,0,0,0-11.09-6.67,36.88,36.88,0,0,0-10-3,36.52,36.52,0,0,0-5.67-.44Z"/><g class="cls-6"><path class="cls-7" d="M43.64,120.24a39,39,0,0,1-8-.81C20.1,116.15,6.78,101.54,1.7,82.2A58.69,58.69,0,0,1,.57,73.51a57.61,57.61,0,0,1,.87-13.23A108.27,108.27,0,0,1,8.24,42.1c3.12-6.5,6.24-11.24,10.55-17.79,4-6,8.26-12,12.75-17.82a12.52,12.52,0,0,1,8.87-4,11.17,11.17,0,0,1,1.14.06,12.3,12.3,0,0,1,9.22,6.16l0,0L67.11,28.17,53.17,48.55,43.71,37.48l-.08,0a6.23,6.23,0,0,0-3-.81,6.51,6.51,0,0,0-.88.06,6.25,6.25,0,0,0-4,2.52L23.32,57.7a23.72,23.72,0,0,0-1.77,11.63,37.69,37.69,0,0,0,5.36,16.14,42,42,0,0,0,3.65,5.19c2.9,3.42,9.08,8.71,14.22,9.25a6.39,6.39,0,0,0,.78,0c3,0,8.49-2,20.45-19.46C85,52.78,97.52,33.55,97.64,33.36c1.21-1.89,4.42-6.88,9.59-7.72a9.64,9.64,0,0,1,1.52-.12,11.55,11.55,0,0,1,3.43.56c6,1.77,9.15,7.44,10.31,10.07L73.17,107.09a37.39,37.39,0,0,1-13,9.91A44,44,0,0,1,43.64,120.24Z"/><path class="cls-7" d="M40.41,3h0c.36,0,.73,0,1.09,0,5.9.59,8.71,5.69,8.83,5.91l.05.09.07.07L59.63,20l6.85,8.16-8,11.63-5.4,7.9-3.57-4.17-5.42-6.34L44,37.09,43.88,37a6.65,6.65,0,0,0-3.28-.88,6,6,0,0,0-1,.07,6.69,6.69,0,0,0-4.37,2.74L29.1,48.18l-6.19,9.25-.06.08,0,.09a24.19,24.19,0,0,0-1.76,11.77,38,38,0,0,0,5.43,16.36l0,.07A41,41,0,0,0,30.18,91c3,3.49,9.26,8.87,14.55,9.43a8,8,0,0,0,.83,0c3.43,0,8.9-2.24,20.86-19.68C85.25,53.32,97.55,34.43,98.07,33.62c1.17-1.82,4.29-6.68,9.24-7.49a9.76,9.76,0,0,1,1.44-.11,11.21,11.21,0,0,1,3.29.54c5.64,1.66,8.67,6.88,9.88,9.53L81.46,94.28l-8.68,12.49A37,37,0,0,1,60,116.55a43.58,43.58,0,0,1-16.32,3.19,38.7,38.7,0,0,1-7.9-.8C20.4,115.7,7.23,101.24,2.19,82.1a56.77,56.77,0,0,1-.27-21.69A107.65,107.65,0,0,1,8.69,42.32c3.11-6.48,6.06-11,10.52-17.73,4-6,8.23-12,12.7-17.77A12,12,0,0,1,40.41,3m0-1a13,13,0,0,0-9.27,4.19c-5.44,7-9.69,13.18-12.76,17.85-4.59,7-7.52,11.44-10.59,17.85A107.19,107.19,0,0,0,1,60.19,57.45,57.45,0,0,0,.08,73.54a56.57,56.57,0,0,0,1.14,8.79c5.1,19.41,18.37,34.22,34.32,37.59a39.4,39.4,0,0,0,8.1.82,44.15,44.15,0,0,0,16.74-3.28,38.51,38.51,0,0,0,13.2-10.08L123.06,36.2c-.69-1.6-3.84-8.57-10.74-10.6a12.19,12.19,0,0,0-3.57-.58,10,10,0,0,0-1.6.13c-5.28.85-8.55,5.79-9.92,7.93,0,0-12.41,19.1-31.63,47.14-11.67,17-17,19.24-20,19.24-.26,0-.5,0-.72,0-4.7-.5-10.69-5.29-13.89-9.08a42.48,42.48,0,0,1-3.61-5.13,37.2,37.2,0,0,1-5.29-15.93,23.31,23.31,0,0,1,.17-5.91A23,23,0,0,1,23.74,58L36.11,39.49a5.67,5.67,0,0,1,3.69-2.31,4.44,4.44,0,0,1,.8-.06,5.54,5.54,0,0,1,2.78.75l9.84,11.51L67.74,28.14,51.21,8.48A12.93,12.93,0,0,0,41.6,2.06C41.2,2,40.8,2,40.41,2Z"/></g><path class="cls-8" d="M43.64,118.24a39,39,0,0,1-8-.81C20.1,114.15,6.78,99.54,1.7,80.2A58.69,58.69,0,0,1,.57,71.51a57.61,57.61,0,0,1,.87-13.23A108.27,108.27,0,0,1,8.24,40.1c3.12-6.5,6.24-11.24,10.55-17.79,4-6,8.26-12,12.75-17.82a12.52,12.52,0,0,1,8.87-4,11.17,11.17,0,0,1,1.14.06,12.3,12.3,0,0,1,9.22,6.16l0,0L67.11,26.17,53.17,46.55,43.71,35.48l-.08,0a6.23,6.23,0,0,0-3-.81,6.51,6.51,0,0,0-.88.06,6.25,6.25,0,0,0-4,2.52L23.32,55.7a23.72,23.72,0,0,0-1.77,11.63,37.69,37.69,0,0,0,5.36,16.14,42,42,0,0,0,3.65,5.19c2.9,3.42,9.08,8.71,14.22,9.25a6.39,6.39,0,0,0,.78,0c3,0,8.49-2,20.45-19.46C85,50.78,97.52,31.55,97.64,31.36c1.21-1.89,4.42-6.88,9.59-7.72a9.64,9.64,0,0,1,1.52-.12,11.55,11.55,0,0,1,3.43.56c6,1.77,9.15,7.44,10.31,10.07L73.17,105.09a37.39,37.39,0,0,1-13,9.91A44,44,0,0,1,43.64,118.24Z"/><path class="cls-5" d="M40.41,1h0c.36,0,.73,0,1.09.05,5.9.59,8.71,5.69,8.83,5.91l.05.09.07.07L59.63,18l6.85,8.16-8,11.63-5.4,7.9-3.57-4.17-5.42-6.34L44,35.09,43.88,35a6.65,6.65,0,0,0-3.28-.88,6,6,0,0,0-1,.07,6.69,6.69,0,0,0-4.37,2.74L29.1,46.18l-6.19,9.25-.06.08,0,.09a24.19,24.19,0,0,0-1.76,11.77,38,38,0,0,0,5.43,16.36l0,.07A41,41,0,0,0,30.18,89c3,3.49,9.26,8.87,14.55,9.43a8,8,0,0,0,.83,0c3.43,0,8.9-2.24,20.86-19.68C85.25,51.32,97.55,32.43,98.07,31.62c1.17-1.82,4.29-6.68,9.24-7.49a9.76,9.76,0,0,1,1.44-.11,11.21,11.21,0,0,1,3.29.54c5.64,1.66,8.67,6.88,9.88,9.53L81.46,92.28l-8.68,12.49A37,37,0,0,1,60,114.55a43.58,43.58,0,0,1-16.32,3.19,38.7,38.7,0,0,1-7.9-.8C20.4,113.7,7.23,99.24,2.19,80.1a56.77,56.77,0,0,1-.27-21.69A107.65,107.65,0,0,1,8.69,40.32c3.11-6.48,6.06-11,10.52-17.73,4-6,8.23-12,12.7-17.77A12,12,0,0,1,40.41,1m0-1a13,13,0,0,0-9.27,4.19c-5.44,7-9.69,13.18-12.76,17.85-4.59,7-7.52,11.44-10.59,17.85A107.19,107.19,0,0,0,1,58.19,57.45,57.45,0,0,0,.08,71.54a56.57,56.57,0,0,0,1.14,8.79c5.1,19.41,18.37,34.22,34.32,37.59a39.4,39.4,0,0,0,8.1.82,44.15,44.15,0,0,0,16.74-3.28,38.51,38.51,0,0,0,13.2-10.08L123.06,34.2c-.69-1.6-3.84-8.57-10.74-10.6a12.19,12.19,0,0,0-3.57-.58,10,10,0,0,0-1.6.13c-5.28.85-8.55,5.79-9.92,7.93,0,0-12.41,19.1-31.63,47.14-11.67,17-17,19.24-20,19.24-.26,0-.5,0-.72,0-4.7-.5-10.69-5.29-13.89-9.08a42.48,42.48,0,0,1-3.61-5.13,37.2,37.2,0,0,1-5.29-15.93,23.31,23.31,0,0,1,.17-5.91A23,23,0,0,1,23.74,56L36.11,37.49a5.67,5.67,0,0,1,3.69-2.31,4.44,4.44,0,0,1,.8-.06,5.54,5.54,0,0,1,2.78.75l9.84,11.51L67.74,26.14,51.21,6.48A12.93,12.93,0,0,0,41.6.06C41.2,0,40.8,0,40.41,0Z"/></g></g></g></svg>