<svg xmlns="http://www.w3.org/2000/svg" viewBox="0 0 186.73 23.23"><title>ds-pay-text-logo</title><g id="Capa_2" data-name="Capa 2"><g id="Capa_1-2" data-name="Capa 1"><path d="M0,0H15.82C25,0,29.87,4.28,29.87,11.48a11.08,11.08,0,0,1-5.43,10c-2.38,1.4-5.72,1.8-10.1,1.8H0ZM13.1,18.87c7.24,0,10.86-1.71,10.86-7.48,0-4.73-2.71-7.25-8.1-7.25H5.72V18.87Z"/><path d="M45.54,4.05v5H60.88c4.62,0,6.14,1.13,6.14,5.49v3.2c0,4.37-1.52,5.49-6.14,5.49H45.68c-4.62,0-6.14-1.12-6.14-5.49v-.63l5.05-1v2.75H62V13.55H46.63c-4.62,0-6.09-1.12-6.09-5.49V5.49C40.54,1.13,42,0,46.63,0h14c4.39,0,6.1,1.08,6.1,5.09v.49l-5,1.13V4.05Z"/><path d="M74.88,8.92H86v4.63H74.88Z"/><path d="M94.6,0h21.06c3.76,0,5.53,1.26,5.53,4.5V9.68c0,3.24-1.77,4.5-5.53,4.5H100.22v9.05H94.6Zm5.62,4v6.17h12.87c1.76,0,2.57-.32,2.57-1.85V5.85c0-1.53-.81-1.84-2.57-1.84Z"/><path d="M136.52,0h5.53l14.1,23.23h-6.43l-2.95-5.08H131.19l-2.86,5.08h-5.72Zm7.86,14L139.1,4.5,133.62,14Z"/><path d="M168.25,12.83,155.48,0h7.62l8.44,8.92L180,0h6.72L174,12.7V23.23h-5.76Z"/></g></g></svg>