<svg xmlns="http://www.w3.org/2000/svg" viewBox="0 0 186.73 188.59"><defs><style>.cls-1{fill:#a8a9ad;}.cls-2{fill:#9fcc3b;}</style></defs><title>DS-PAY</title><g id="Capa_2" data-name="Capa 2"><g id="Capa_1-2" data-name="Capa 1"><path class="cls-1" d="M39.31,25C37,27.17,36.87,31.91,36.67,41.3c-.21,10-.32,15,1.68,17.52,3.9,4.88,10.93,3.09,24.93,3.7,5.29.24,19.39.86,31,4.94,6.74,2.36,25.11,8.82,31,26.4,4.54,13.64.71,31.53-10.8,39.84-16.92,12.21-43.66-1.19-48.48-3.6-14.38-7.21-22.72-17.81-27.12-14.88-2,1.36-2.09,5.87-2.16,14.88-.05,6.83-.08,10.24,1.44,12.48,3,4.34,9.46,4.69,22.32,4.32,20.7-.6,31-.9,37.44-2.88,9.51-3,22.61-7,31.92-19.2,14.91-19.59,8.56-44.2,7.44-48.24C130.14,51,108.26,39.2,104.11,37c-7.93-4.25-17-6.83-22.56-8.4A135.45,135.45,0,0,0,59,24.26C42.91,22.19,40.42,23.91,39.31,25Z"/><path class="cls-2" d="M37.87,0H143.71A5.91,5.91,0,0,1,148,1.46,5.87,5.87,0,0,1,150,5.3V55a7.06,7.06,0,0,1-9.12,4.56,92,92,0,0,0-27.36-26.88c-12.79-8.07-24.34-10.75-37-13.68a177.37,177.37,0,0,0-38.64-4.56,16.27,16.27,0,0,1,0-14.4Z"/><rect class="cls-2" x="133.63" y="129.14" width="16.8" height="16.8" rx="4.08"/><path d="M0,165.35H15.82c9.19,0,14.05,4.28,14.05,11.49a11.09,11.09,0,0,1-5.43,9.95c-2.38,1.39-5.72,1.8-10.1,1.8H0Zm13.1,18.87c7.24,0,10.86-1.71,10.86-7.47,0-4.73-2.71-7.25-8.1-7.25H5.72v14.72Z"/><path d="M45.54,169.41v5H60.88c4.62,0,6.14,1.13,6.14,5.5v3.19c0,4.37-1.52,5.5-6.14,5.5H45.68c-4.62,0-6.14-1.13-6.14-5.5v-.63l5.05-1v2.75H62v-5.31H46.63c-4.62,0-6.09-1.13-6.09-5.5v-2.56c0-4.37,1.47-5.5,6.09-5.5h14c4.39,0,6.1,1.08,6.1,5.09v.5l-5,1.12v-2.65Z"/><path d="M74.88,174.27H86v4.64H74.88Z"/><path d="M94.6,165.35h21.06c3.76,0,5.53,1.26,5.53,4.51V175c0,3.25-1.77,4.51-5.53,4.51H100.22v9.05H94.6Zm5.62,4v6.17h12.87c1.76,0,2.57-.31,2.57-1.85v-2.47c0-1.53-.81-1.85-2.57-1.85Z"/><path d="M136.52,165.35h5.53l14.1,23.24h-6.43l-2.95-5.09H131.19l-2.86,5.09h-5.72Zm7.86,14-5.28-9.45-5.48,9.45Z"/><path d="M168.25,178.19l-12.77-12.84h7.62l8.44,8.92,8.47-8.92h6.72L174,178.05v10.54h-5.76Z"/></g></g></svg>