<svg xmlns="http://www.w3.org/2000/svg" viewBox="0 0 113.87 147.01"><defs><style>.cls-1{fill:#a8a9ad;}.cls-2{fill:#9fcc3b;}</style></defs><title>dspay-notext</title><g id="Capa_2" data-name="Capa 2"><g id="Capa_1-2" data-name="Capa 1"><path class="cls-1" d="M2.75,25C.45,27.17.31,31.91.11,41.3c-.21,10-.32,15,1.68,17.52,3.89,4.88,10.93,3.09,24.93,3.7,5.28.24,19.39.86,31,4.94,6.74,2.36,25.11,8.82,31,26.4,4.54,13.64.71,31.53-10.8,39.84-16.92,12.21-43.66-1.19-48.48-3.6C15,122.89,6.67,112.29,2.27,115.22.21,116.58.18,121.09.11,130.1c0,6.83-.08,10.24,1.44,12.48,3,4.34,9.46,4.69,22.32,4.32,20.69-.6,31-.9,37.44-2.88,9.51-3,22.61-7,31.92-19.2,14.91-19.59,8.56-44.2,7.44-48.24C93.57,51,71.7,39.2,67.55,37c-7.93-4.25-17-6.83-22.56-8.4a135.83,135.83,0,0,0-22.56-4.32C6.34,22.19,3.86,23.91,2.75,25Z"/><path class="cls-2" d="M1.31,0H107.15a5.92,5.92,0,0,1,4.32,1.44,5.93,5.93,0,0,1,1.92,3.84V55a7.06,7.06,0,0,1-9.12,4.56A92,92,0,0,0,76.91,32.66C64.12,24.59,52.57,21.91,40,19A177.37,177.37,0,0,0,1.31,14.42,31.72,31.72,0,0,1,.47,7.18,31,31,0,0,1,1.31,0Z"/><rect class="cls-2" x="97.07" y="129.14" width="16.8" height="16.8" rx="4.08"/></g></g></svg>