<svg xmlns="http://www.w3.org/2000/svg" viewBox="0 0 725.03 147.03"><defs><style>.cls-1{fill:#a8a9ad;}.cls-2{fill:#9fcc3b;}</style></defs><title>dspay-horizontal</title><g id="Capa_2" data-name="Capa 2"><g id="Capa_1-2" data-name="Capa 1"><g id="Capa_2-2" data-name="Capa 2"><g id="Capa_1-2-2" data-name="Capa 1-2"><path class="cls-1" d="M2.75,25C.45,27.19.31,31.93.11,41.32c-.21,10-.32,15,1.68,17.52,3.89,4.88,10.93,3.09,24.93,3.7,5.28.24,19.39.86,31,4.94,6.74,2.36,25.11,8.82,31,26.4,4.54,13.64.71,31.53-10.8,39.84-16.92,12.21-43.66-1.19-48.48-3.6C15,122.91,6.67,112.31,2.27,115.24.21,116.6.18,121.11.11,130.12.11,137,0,140.36,1.55,142.6c3,4.34,9.46,4.69,22.32,4.32,20.69-.6,31-.9,37.44-2.88,9.51-3,22.61-7,31.92-19.2,14.91-19.59,8.56-44.2,7.44-48.24C93.57,51,71.7,39.22,67.55,37c-7.93-4.25-17-6.83-22.56-8.4A135.29,135.29,0,0,0,22.43,24.3C6.34,22.21,3.86,23.93,2.75,25Z"/><path class="cls-2" d="M1.31,0H107.15a5.78,5.78,0,0,1,6.24,5.28V55a7.06,7.06,0,0,1-8.83,4.65l-.29-.09a92,92,0,0,0-27.36-26.9C64.12,24.61,52.57,21.93,40,19A176.89,176.89,0,0,0,1.31,14.44,31.61,31.61,0,0,1,.47,7.2,31,31,0,0,1,1.31,0Z"/><rect class="cls-2" x="97.07" y="129.16" width="16.8" height="16.8" rx="4.08"/></g></g><g id="Capa_2-3" data-name="Capa 2"><g id="Capa_1-2-3" data-name="Capa 1-2"><path d="M170.88,39.88h47c27.25,0,41.7,12.7,41.7,34.07a32.88,32.88,0,0,1-16.12,29.68c-7.06,4.16-17,5.34-30,5.34H170.88Zm38.88,56c21.49,0,32.23-5.07,32.23-22.19,0-14-8-21.52-24-21.52H187.86V95.88Z"/><path d="M306,51.9V66.74h45.53c13.71,0,18.22,3.35,18.22,16.29v9.5c0,13-4.51,16.29-18.22,16.29H306.45c-13.71,0-18.22-3.32-18.22-16.29V90.66l15-3v8.16h51.66V80.1H309.27c-13.71,0-18.07-3.33-18.07-16.3V56.18c0-12.94,4.33-16.3,18.07-16.3h41.55c13,0,18.1,3.21,18.1,15.11v1.45L354.08,59.8V51.9Z"/><path d="M393.11,66.35h33V80.1h-33Z"/><path d="M451.64,39.88h62.5c11.16,0,16.41,3.74,16.41,13.36V68.61c0,9.62-5.25,13.36-16.41,13.36H468.31v26.85H451.64Zm16.67,11.87V70.06h38.2c5.22,0,7.63-1,7.63-5.49V57.24c0-4.54-2.41-5.46-7.63-5.46Z"/><path d="M576.05,39.88h16.41l41.84,68.94H615.22l-8.75-15.07H560.23l-8.49,15.07h-17Zm23.32,41.55L583.7,53.24,567.44,81.43Z"/><path d="M670.21,78,632.32,39.88h22.61L680,66.35l25.11-26.47H725L687.28,77.57v31.25H670.19Z"/></g></g></g></g></svg>